<svg data-name="Слой 1" xmlns="http://www.w3.org/2000/svg" viewBox="0 0 296.05 59.58"> <defs> <style>.cls-1{fill:#ee7230;}.cls-1,.cls-2{fill-rule:evenodd;}.cls-2{fill:#fff;}</style> </defs> <title>domotex_logo</title> <path class="cls-1" d="M138.58,45.58a33.77,33.77,0,0,1-20.11,14.49V61h178.1V45.58h-158Zm-56.8,0H0.52V61H101.89V60.07A33.77,33.77,0,0,1,81.78,45.58ZM259.23,30.16h2.53l7.4,9.94h6.33l-9-12.38,9-10.79H269.3l-7.06,8h-3v-8H254V40.1h5.28V30.16Zm-14.44-5v15H250V16.89h-5.67l-10.47,15v-15h-5.4V40.1h6Zm36.62-2.61a2.71,2.71,0,0,1,1.94-.67h5.3a2.45,2.45,0,0,1,1.83.63,2.19,2.19,0,0,1,.57,1.79v0.63H282a8.36,8.36,0,0,0-4.87,1.64c-2.27,1.84-2.4,4-2.4,5.86v0.06c0,1.84.14,4.16,2.4,6A8,8,0,0,0,282,40.1h14.29V24.78c0-1.84-.07-4.42-2.32-6.26a7.81,7.81,0,0,0-4.78-1.64h-6.12A8.61,8.61,0,0,0,278,18.52a6.17,6.17,0,0,0-2.32,5.34H281A1.91,1.91,0,0,1,281.41,22.52Zm9.68,7.59V35L283,35a3,3,0,0,1-2.33-.77,2.08,2.08,0,0,1-.57-1.74,2.1,2.1,0,0,1,.57-1.63,3,3,0,0,1,2.33-.74h8.1v0Zm-83,0h11.09v10h5.17V16.89h-5.17v8H208.08v-8h-5.27V40.1h5.27v-10Zm-47.26,8.35a8.08,8.08,0,0,0,4.86,1.63h11.57V34.85H166.31a3.48,3.48,0,0,1-1.88-.81,3.4,3.4,0,0,1-.74-2.34V31h13.57V25.67H163.68V24.89a2.44,2.44,0,0,1,.74-2,3.44,3.44,0,0,1,1.88-.81h10.94V16.89H165.68a8,8,0,0,0-4.87,1.64c-2.26,1.83-2.41,4.42-2.41,6.26v7.4C158.41,34,158.56,36.63,160.82,38.47Zm-129.59,0a8.07,8.07,0,0,0,4.86,1.63h7A8.08,8.08,0,0,0,48,38.46c2.26-1.83,2.4-4.43,2.4-6.26V24.82c0-1.83-.14-4.42-2.4-6.26a8,8,0,0,0-4.87-1.63h-7a8,8,0,0,0-4.86,1.63C29,20.4,28.82,23,28.82,24.82V32.2C28.82,34,29,36.63,31.23,38.46ZM34.1,25.3a3.4,3.4,0,0,1,.73-2.35,3.53,3.53,0,0,1,1.88-.8h5.77a3.53,3.53,0,0,1,1.87.8,3.46,3.46,0,0,1,.73,2.35v6.43a3.42,3.42,0,0,1-.73,2.34,3.43,3.43,0,0,1-1.87.81H36.71a3.43,3.43,0,0,1-1.88-.81,3.36,3.36,0,0,1-.73-2.34V25.3ZM185.72,40.1l4.46-7.54,4.68,7.54h6.44l-7.9-12.32L201,16.89h-6.12l-4.55,6.87-4.6-6.87h-6.33L187,28,179.1,40.1h6.62ZM25.07,24.84c0-1.85-.15-4.45-2.42-6.3a8.05,8.05,0,0,0-4.9-1.65H11.9A8,8,0,0,0,7,18.54C4.73,20.39,4.58,23,4.58,24.84v10H0.64V40.1H25.07V24.84Zm-5.41,10H10V25.33A3.41,3.41,0,0,1,10.74,23a3.49,3.49,0,0,1,1.88-.82H17a3.5,3.5,0,0,1,1.89.82,3.41,3.41,0,0,1,.74,2.37v9.52Zm118.23-6.32a27.12,27.12,0,0,0-.76-6.37h7.69V40.1H150V22.15h6.86V16.93h-21.6a27.12,27.12,0,0,0-50.9,17.86H77.12V22.07h0V19.8a3.21,3.21,0,0,0-2.17-2.95,2.62,2.62,0,0,0-2.38.57c-0.64.52-6.29,6.76-6.86,7.44-0.58-.68-6.23-6.92-6.87-7.44a2.62,2.62,0,0,0-2.38-.57,3.21,3.21,0,0,0-2.17,2.95v2.26h0V40h5.26V24.89l3.84,4.58a3.33,3.33,0,0,0,2.33,1.59A3.32,3.32,0,0,0,68,29.47l3.84-4.58V40H86.21A27.12,27.12,0,0,0,137.89,28.52ZM110.77,49.9a21.37,21.37,0,0,1-18-9.89h8.16a6.46,6.46,0,1,0-2.78-5.22h-7.8a21.37,21.37,0,0,1,38.39-17.86h-8.23a6.47,6.47,0,1,0,2.91,5.22h7.78A21.38,21.38,0,0,1,110.77,49.9Zm0-8.44v4.3A17.25,17.25,0,0,0,128,28.57h-4.3A13,13,0,0,1,110.8,41.46Z" transform="translate(-0.52 -1.4)"></path> <g id="description"> <path class="cls-2" d="M158.18,57.7a6,6,0,0,1-2.31.39c-3.12,0-4.73-2-4.73-4.53a4.6,4.6,0,0,1,4.94-4.79,5.16,5.16,0,0,1,2.22.4l-0.42,1.61a4.4,4.4,0,0,0-1.72-.33,2.72,2.72,0,0,0-2.87,3,2.69,2.69,0,0,0,2.88,2.95,4.88,4.88,0,0,0,1.72-.29Z" transform="translate(-0.52 -1.4)"></path> <polygon class="cls-2" points="165.85 52.72 162.53 52.72 162.53 54.87 166.24 54.87 166.24 56.55 160.49 56.55 160.49 47.51 166.05 47.51 166.05 49.19 162.53 49.19 162.53 51.06 165.85 51.06 165.85 52.72"></polygon> <polygon class="cls-2" points="171.04 49.23 168.6 49.23 168.6 47.51 175.54 47.51 175.54 49.23 173.07 49.23 173.07 56.55 171.04 56.55 171.04 49.23"></polygon> <path class="cls-2" d="M180.72,48.91v3.15a8.15,8.15,0,0,1,1.1-.08c1.94,0,3.59.93,3.59,2.93a2.71,2.71,0,0,1-.72,2A5.42,5.42,0,0,1,180.9,58a15.43,15.43,0,0,1-2.21-.14v-9h2Zm0,7.55a4.42,4.42,0,0,0,.75,0,1.55,1.55,0,0,0,1.8-1.5,1.5,1.5,0,0,0-1.77-1.46,7.22,7.22,0,0,0-.77.05v2.86Z" transform="translate(-0.52 -1.4)"></path> <path class="cls-2" d="M200.7,54.49c0-1.09-.08-2.4-0.08-3.72h0c-0.3,1.15-.67,2.44-1,3.5l-1.1,3.53h-1.6l-1-3.49c-0.3-1.07-.59-2.36-0.82-3.54h0c0,1.22-.09,2.62-0.15,3.74l-0.17,3.43h-1.89l0.58-9h2.72l0.88,3c0.3,1.05.56,2.18,0.77,3.23h0.06c0.24-1,.55-2.24.85-3.24l1-3h2.68l0.48,9h-2Z" transform="translate(-0.52 -1.4)"></path> <path class="cls-2" d="M208.15,55.62l-0.65,2.32H205.4l2.75-9h2.68l2.81,9h-2.21l-0.7-2.32h-2.58Zm2.29-1.52-0.57-1.92c-0.16-.54-0.32-1.21-0.46-1.74h0c-0.13.54-.27,1.22-0.42,1.74l-0.54,1.92h2Z" transform="translate(-0.52 -1.4)"></path> <polygon class="cls-2" points="221.27 47.51 221.27 49.19 217.85 49.19 217.85 56.55 215.82 56.55 215.82 47.51 221.27 47.51"></polygon> <path class="cls-2" d="M225.69,55.62L225,57.95h-2.11l2.75-9h2.68l2.82,9H229l-0.7-2.32h-2.58ZM228,54.1l-0.56-1.92c-0.16-.54-0.32-1.21-0.46-1.74h0c-0.14.54-.27,1.22-0.42,1.74L226,54.1h2Z" transform="translate(-0.52 -1.4)"></path> <path class="cls-2" d="M233.78,49.47a5.43,5.43,0,0,1,2.81-.72c2,0,3.13,1,3.13,2.32a2.15,2.15,0,0,1-1.81,2.13v0a2.25,2.25,0,0,1,2.1,2.15c0,2-2,2.72-3.72,2.72a5.69,5.69,0,0,1-2.71-.63L234,55.88a5.39,5.39,0,0,0,2.19.55c1,0,1.66-.44,1.66-1.19,0-1-1-1.19-1.9-1.19h-0.86V52.53H236c0.92,0,1.62-.42,1.62-1.14a1.13,1.13,0,0,0-1.37-1,4.87,4.87,0,0,0-2,.54Z" transform="translate(-0.52 -1.4)"></path> <path class="cls-2" d="M244.77,48.91v2.68c0,1.45,0,2.88-.11,4.09h0c0.48-1.06,1.09-2.25,1.62-3.22l1.95-3.55h2.09v9h-1.87V55.28c0-1.4,0-2.63.14-3.81h0A26.45,26.45,0,0,1,247,54.69l-1.84,3.26h-2.32v-9h1.88Z" transform="translate(-0.52 -1.4)"></path> <polygon class="cls-2" points="255.19 47.51 255.19 50.98 258.56 50.98 258.56 47.51 260.59 47.51 260.59 56.55 258.56 56.55 258.56 52.76 255.19 52.76 255.19 56.55 253.15 56.55 253.15 47.51 255.19 47.51"></polygon> <path class="cls-2" d="M272.65,53.33c0,3-1.78,4.76-4.43,4.76s-4.25-2-4.25-4.61,1.74-4.73,4.4-4.73,4.29,2.08,4.29,4.58m-6.53.11c0,1.78.83,3,2.2,3s2.17-1.32,2.17-3.07-0.76-3-2.17-3S266.13,51.68,266.13,53.44Z" transform="translate(-0.52 -1.4)"></path> <path class="cls-2" d="M275.53,49a17.76,17.76,0,0,1,2.64-.19,5.09,5.09,0,0,1,2.68.51,2,2,0,0,1,1.07,1.78,2.06,2.06,0,0,1-1.49,1.92v0a2.26,2.26,0,0,1,1.8,2.22,2.43,2.43,0,0,1-.94,1.93,5.73,5.73,0,0,1-3.55.82,15.59,15.59,0,0,1-2.21-.14V49Zm2,3.45h0.67c1.09,0,1.65-.44,1.65-1.11s-0.52-1-1.45-1a5.09,5.09,0,0,0-.87.05v2.1Zm0,4a6.55,6.55,0,0,0,.79,0c0.92,0,1.74-.36,1.74-1.31s-0.82-1.26-1.84-1.26h-0.7V56.5Z" transform="translate(-0.52 -1.4)"></path> </g></svg>
